<svg version="1.1" xmlns="http://www.w3.org/2000/svg" xmlns:xlink="http://www.w3.org/1999/xlink" width="53.95819" height="54.55604" viewBox="0,0,53.95819,54.55604"><g transform="translate(-198.23279,-149.62431)"><g data-paper-data="{&quot;isPaintingLayer&quot;:true}" fill="none" fill-rule="nonzero" stroke="#fffff2" stroke-width="2" stroke-linecap="round" stroke-linejoin="miter" stroke-miterlimit="10" stroke-dasharray="" stroke-dashoffset="0" style="mix-blend-mode: normal"><path d="M209.70892,196.05232h5.34279l4.37812,-4.37812c0,0 27.01279,-26.78512 29.38533,-29.38533c2.14222,-2.34779 3.73751,-7.01504 0.66785,-9.86932c-3.1325,-2.91271 -7.19189,-1.96615 -9.94352,0.59364c-2.71957,2.52996 -29.16271,29.16271 -29.16271,29.16271l-4.30391,4.30391v6.38166z"/><path d="M244.51124,167.33484v27.90122h-6.23325l-10.68557,-10.68557"/><path d="M218.04816,173.67054l-10.68557,-10.68558v-6.23325l27.90122,0" data-paper-data="{&quot;index&quot;:null}"/><path d="M219.87506,191.52579v10.24034l-5.26858,-5.26858"/><path d="M205.91558,186.76779l-5.26858,-5.26858l10.24034,0" data-paper-data="{&quot;index&quot;:null}"/><path d="M216.75843,185.44095l-6.53007,6.53007"/></g></g></svg>